<svg id="_лой_1" data-name="‘лой_1" xmlns="http://www.w3.org/2000/svg" viewBox="0 0 1000 1000"><defs><style>.cls-1{fill:#ed7d2b;}.cls-2{fill:#f99746;}.cls-3{fill:#16697a;}.cls-4{fill:#ffeddc;}.cls-5{fill:#e5c1a1;}.cls-6{fill:#f9ddbf;}.cls-7{font-size:200.36px;font-family:Montserrat-Black, Montserrat;font-weight:800;}.cls-8{fill:#ffa62b;}.cls-9{letter-spacing:0.01em;}.cls-10{letter-spacing:0em;}.cls-11{letter-spacing:-0.01em;}</style></defs><path class="cls-1" d="M548.29,381.28v39.35c0,7.53-6.44,13.69-14.32,13.69H504.5c-7.87,0-14.32-6.16-14.32-13.69V381.28c0-7.53,6.45-13.69,14.32-13.69H534C541.85,367.59,548.29,373.75,548.29,381.28Z"/><path class="cls-2" d="M548.29,381.28V403.2c0,7.53-6.44,13.7-14.32,13.7H504.5c-7.87,0-14.32-6.17-14.32-13.7V381.28c0-7.53,6.45-13.69,14.32-13.69H534C541.85,367.59,548.29,373.75,548.29,381.28Z"/><path class="cls-1" d="M874.87,401a139.48,139.48,0,0,1-12.08,56.85c-23.32,52.51-77.85,89.57-141,89.57H678c-2.62,0-5.22-.06-7.82-.19a156.34,156.34,0,0,1-85.56-30.42,150.31,150.31,0,0,1-38.34-41.46,140,140,0,0,1-9.26-131.2c23.31-52.49,77.84-89.56,141-89.56H721.8c57.42,0,107.71,30.65,133.9,75.69A140.3,140.3,0,0,1,874.87,401Z"/><path class="cls-1" d="M747.7,485.21l-14.28,88.68c-1.89,6.87,3.52,13.59,11,13.59h37.52A21.62,21.62,0,0,0,801,576.35l58.32-111.27Z"/><path class="cls-1" d="M662.77,587.48H625.24a21.6,21.6,0,0,1-19.09-11.13l-36.07-60.91L546.31,475.3l116,11.43,4.19,31.88,3.75,28.57,3.51,26.71C675.61,580.76,670.2,587.48,662.77,587.48Z"/><path class="cls-2" d="M851.83,384c-30.9,85-60.14,130.43-178.56,134.38q-3.45.12-6.81.2a786.13,786.13,0,0,1-81.81-1.85c-5.33-.42-10.18-.87-14.57-1.32L546.31,475.3a140,140,0,0,1-9.26-131.2c23.31-52.49,77.84-89.56,141-89.56H721.8c57.42,0,107.71,30.65,133.9,75.69C859.32,347.12,856.47,371.25,851.83,384Z"/><path class="cls-2" d="M660,291.22H599.78c-6.07,0-11-3.52-11-7.87V204.72a6.14,6.14,0,0,1,1.2-3.62c3-4.09,10.69-5.77,16.44-2.65,22.86,12.39,60.31,39.33,64.53,84.36C671.38,287.36,666.35,291.22,660,291.22Z"/><path class="cls-1" d="M602.23,291.22h-2.45c-6.07,0-11-3.52-11-7.87V204.72a6.14,6.14,0,0,1,1.2-3.62,8.06,8.06,0,0,1,.75.69c13.08,13.93,31.93,41.29,26.61,79.61C616.58,287,610.05,291.22,602.23,291.22Z"/><path class="cls-3" d="M570.5,343.79a9,9,0,1,1,9,8.58A8.78,8.78,0,0,1,570.5,343.79Z"/><path class="cls-4" d="M607.93,480s-10.43,14.69-20,14.89-24.11-6.8-24.11-6.8S555,468.51,561,460.85a12.79,12.79,0,0,1,12.22,2,18.85,18.85,0,0,1,3.24,3.09,10.27,10.27,0,0,0,5,3.41c6.82,2.07,14.92-2.81,17.95,1.9a31.91,31.91,0,0,0,5.28,6.25A23.5,23.5,0,0,0,607.93,480Z"/><path class="cls-4" d="M471.93,585.93s36.87-89.34,103.24-91c0,0,61.27,6.81,64.67,91Z"/><path class="cls-3" d="M557,497.61s26.6,5.92,34.81,2.44c0,0,1.24-11.12-10-9.56-7.67,1.07-12.67-2.62-15.6-4.12C562.08,484.26,555.88,493,557,497.61Z"/><path class="cls-5" d="M580.14,480.84c-1.7,1.28-6.93-18-6.93-18a18.85,18.85,0,0,1,3.24,3.09,10.27,10.27,0,0,0,5,3.41C581.48,469.92,581.79,479.6,580.14,480.84Z"/><path class="cls-5" d="M604.7,477.51c-.38.22-12.68,7.59-14.35,7.59s9.07-13.84,9.07-13.84A31.91,31.91,0,0,0,604.7,477.51Z"/><path class="cls-6" d="M508,561c-.68-.58,26.09-39.42,33.47-39.71s23.94,8.51,35.94,9.65,23.62-2.27,25.89,4.82S611.76,568,607.93,572,522.67,573.55,508,561Z"/><text class="cls-7" transform="translate(125.13 549.07)">My<tspan class="cls-8"><tspan class="cls-9" x="0" y="200">m</tspan><tspan class="cls-10" x="210.38" y="200">o</tspan><tspan class="cls-9" x="346.22" y="200">n</tspan><tspan class="cls-11" x="488.87" y="200">e</tspan><tspan x="617.7" y="200">y</tspan></tspan></text></svg>